<svg width="15" height="48" viewBox="0 0 15 48" fill="none" xmlns="http://www.w3.org/2000/svg">
<g clip-path="url(#clip0_4_1687)">
<path fill-rule="evenodd" clip-rule="evenodd" d="M14 28.5C14 29.327 13.327 30 12.5 30H2.5C1.673 30 1 29.327 1 28.5V19.498C1 18.67 1.673 17.998 2.5 17.998H12.5C13.327 17.998 14 18.67 14 19.498V28.5ZM7.5 14.5C8.936 14.5 10.107 15.598 10.252 16.998H4.748C4.893 15.598 6.064 14.5 7.5 14.5V14.5ZM12.5 16.998H11.252C11.104 15.046 9.487 13.5 7.5 13.5C5.513 13.5 3.896 15.046 3.748 16.998H2.5C1.122 16.998 0 18.119 0 19.498V28.5C0 29.878 1.122 31 2.5 31H12.5C13.878 31 15 29.878 15 28.5V19.498C15 18.119 13.878 16.998 12.5 16.998V16.998Z" fill="white"/>
</g>
<defs>
<clipPath id="clip0_4_1687">
<rect width="15" height="48" fill="white"/>
</clipPath>
</defs>
</svg>
