<svg width="18" height="48" viewBox="0 0 18 48" fill="none" xmlns="http://www.w3.org/2000/svg">
<g clip-path="url(#clip0_4_1678)">
<path fill-rule="evenodd" clip-rule="evenodd" d="M9.21685 16.784C9.11985 16.784 9.02385 16.772 8.96385 16.76C8.95185 16.712 8.92785 16.567 8.92785 16.423C8.92785 15.46 9.42085 14.51 9.95085 13.908C10.6248 13.126 11.7438 12.536 12.6818 12.5C12.7058 12.609 12.7178 12.741 12.7178 12.873C12.7178 13.824 12.3088 14.775 11.7318 15.46C11.1178 16.219 10.0588 16.784 9.21685 16.784M16.0748 18.829C15.9668 18.914 14.0658 19.985 14.0658 22.367C14.0658 25.122 16.4848 26.097 16.5568 26.121C16.5448 26.181 16.1718 27.457 15.2808 28.757C14.4868 29.9 13.6568 31.043 12.3928 31.043C11.1298 31.043 10.8048 30.308 9.34885 30.308C7.92885 30.308 7.42385 31.067 6.26885 31.067C5.11285 31.067 4.30685 30.008 3.38085 28.708C2.30985 27.18 1.44385 24.81 1.44385 22.559C1.44385 18.95 3.78985 17.036 6.09985 17.036C7.32785 17.036 8.34985 17.843 9.11985 17.843C9.85485 17.843 10.9978 16.989 12.3928 16.989C12.9228 16.989 14.8238 17.036 16.0748 18.829" fill="white"/>
</g>
<defs>
<clipPath id="clip0_4_1678">
<rect width="17" height="48" fill="white" transform="translate(0.5)"/>
</clipPath>
</defs>
</svg>
